<?xml version="1.0" encoding="UTF-8" standalone="no"?>
<!-- Created with Inkscape (http://www.inkscape.org/) -->

<svg
   xmlns:dc="http://purl.org/dc/elements/1.1/"
   xmlns:cc="http://creativecommons.org/ns#"
   xmlns:rdf="http://www.w3.org/1999/02/22-rdf-syntax-ns#"
   xmlns:svg="http://www.w3.org/2000/svg"
   xmlns="http://www.w3.org/2000/svg"
   xmlns:sodipodi="http://sodipodi.sourceforge.net/DTD/sodipodi-0.dtd"
   xmlns:inkscape="http://www.inkscape.org/namespaces/inkscape"
   width="210mm"
   height="297mm"
   viewBox="0 0 210 297"
   version="1.1"
   id="svg6265"
   inkscape:version="0.92.3 (2405546, 2018-03-11)"
   sodipodi:docname="part3.svg">
  <sodipodi:namedview
     id="base"
     pagecolor="#ffffff"
     bordercolor="#666666"
     borderopacity="1.0"
     inkscape:pageopacity="0.0"
     inkscape:pageshadow="2"
     inkscape:zoom="1.8"
     inkscape:cx="333.55639"
     inkscape:cy="797.63135"
     inkscape:document-units="mm"
     inkscape:current-layer="layer1"
     showgrid="false"
     inkscape:window-width="1920"
     inkscape:window-height="1080"
     inkscape:window-x="0"
     inkscape:window-y="0"
     inkscape:window-maximized="1"
     showguides="false" />
  <defs
     id="defs6259">
    <inkscape:path-effect
       effect="bspline"
       id="path-effect2474"
       is_visible="true"
       weight="33.333333"
       steps="2"
       helper_size="0"
       apply_no_weight="true"
       apply_with_weight="true"
       only_selected="false" />
    <inkscape:path-effect
       only_selected="false"
       apply_with_weight="true"
       apply_no_weight="true"
       helper_size="0"
       steps="2"
       weight="33.333333"
       is_visible="true"
       id="path-effect7040"
       effect="bspline" />
    <inkscape:path-effect
       effect="bspline"
       id="path-effect7036"
       is_visible="true"
       weight="33.333333"
       steps="2"
       helper_size="0"
       apply_no_weight="true"
       apply_with_weight="true"
       only_selected="false" />
    <inkscape:path-effect
       effect="bspline"
       id="path-effect6826"
       is_visible="true"
       weight="33.333333"
       steps="2"
       helper_size="0"
       apply_no_weight="true"
       apply_with_weight="true"
       only_selected="false" />
    <inkscape:path-effect
       effect="bspline"
       id="path-effect6822"
       is_visible="true"
       weight="33.333333"
       steps="2"
       helper_size="0"
       apply_no_weight="true"
       apply_with_weight="true"
       only_selected="false" />
    <inkscape:path-effect
       only_selected="false"
       apply_with_weight="true"
       apply_no_weight="true"
       helper_size="0"
       steps="2"
       weight="33.333333"
       is_visible="true"
       id="path-effect37999"
       effect="bspline" />
    <inkscape:path-effect
       only_selected="false"
       apply_with_weight="true"
       apply_no_weight="true"
       helper_size="0"
       steps="2"
       weight="33.333333"
       is_visible="true"
       id="path-effect37999-4"
       effect="bspline" />
  </defs>
  <metadata
     id="metadata6262">
    <rdf:RDF>
      <cc:Work
         rdf:about="">
        <dc:format>image/svg+xml</dc:format>
        <dc:type
           rdf:resource="http://purl.org/dc/dcmitype/StillImage" />
        <dc:title />
      </cc:Work>
    </rdf:RDF>
  </metadata>
  <g
     id="layer1"
     inkscape:groupmode="layer"
     inkscape:label="Layer 1">
    <path
       sodipodi:nodetypes="ccccccc"
       inkscape:original-d="m 13.512481,91.916086 c 2.452844,-6.87266 4.904513,-13.743717 7.355017,-20.613231 5.318869,21.406207 10.636584,42.814065 15.953141,64.223485 4.731859,-31.22526 9.462548,-62.448841 14.192077,-93.670883 4.352017,31.222042 8.702867,62.445623 13.052572,93.670883 5.975251,-21.27022 11.948741,-42.536808 17.921386,-63.80287 1.878679,6.759582 3.756194,13.520707 5.632553,20.283432"
       inkscape:path-effect="#path-effect37999"
       inkscape:connector-curvature="0"
       id="path37997"
       d="m 13.512481,91.916086 c 2.452306,-6.872852 4.903971,-13.74391 8.788195,-6.475285 3.884223,7.268626 9.201944,28.676479 14.226434,23.768309 5.024489,-4.90817 9.755175,-36.131748 14.295722,-36.131585 4.540547,1.63e-4 8.891397,31.223745 14.054216,36.201075 5.162818,4.97733 11.136321,-16.289253 15.061573,-23.542195 3.925251,-7.252942 5.802764,-0.491816 7.680606,6.270497"
       style="fill:none;stroke:#000000;stroke-width:0.33162385;stroke-linecap:butt;stroke-linejoin:miter;stroke-miterlimit:4;stroke-dasharray:none;stroke-opacity:1" />
    <path
       style="fill:none;stroke:#000000;stroke-width:0.33162385;stroke-linecap:butt;stroke-linejoin:miter;stroke-miterlimit:4;stroke-dasharray:none;stroke-opacity:1"
       d="m 13.849055,128.06881 c 2.452307,6.87285 4.903971,13.7439 8.788194,6.47528 3.884223,-7.26862 9.201947,-28.67649 14.226434,-23.76832 5.024488,4.90817 9.755175,36.13176 14.295722,36.13159 4.540547,-1.6e-4 8.891399,-31.22375 14.054215,-36.20108 5.162816,-4.97733 11.136326,16.28927 15.061576,23.54221 3.92525,7.25294 5.802761,0.49182 7.680605,-6.2705"
       id="path6824"
       inkscape:connector-curvature="0"
       inkscape:path-effect="#path-effect6826"
       inkscape:original-d="m 13.849055,128.06881 c 2.452844,6.87266 4.904513,13.74371 7.355017,20.61322 5.318868,-21.4062 10.636584,-42.81407 15.95314,-64.223479 4.731859,31.225249 9.462548,62.448839 14.192078,93.670879 4.352017,-31.22204 8.702866,-62.44563 13.052571,-93.670879 5.975251,21.270209 11.948741,42.536819 17.921387,63.802869 1.878679,-6.75958 3.756193,-13.5207 5.632553,-20.28343"
       sodipodi:nodetypes="ccccccc" />
    <g
       id="g6976"
       transform="matrix(1.2593017,0,0,1,-17.153981,40.632836)">
      <path
         id="path6944"
         style="fill:none;stroke:#000000;stroke-width:0.29551589;stroke-linecap:butt;stroke-linejoin:miter;stroke-miterlimit:4;stroke-dasharray:none;stroke-opacity:1"
         d="m 24.367679,53.40988 c 1.947335,-6.064223 3.89418,-12.126921 6.978603,-5.713516 8.8e-5,2.09e-4 1.77e-4,4.18e-4 2.66e-4,6.27e-4 3.084399,6.414008 7.307026,25.301928 11.296822,20.971411 1.14e-4,-1.41e-4 2.29e-4,-2.81e-4 3.44e-4,-4.23e-4 3.989781,-4.332029 7.746263,-31.880458 11.351767,-31.880368 2.07e-4,0 4.14e-4,1e-6 6.21e-4,1e-6 3.605382,0.0037 7.060192,27.5506 11.159699,31.942134 7e-6,-9e-6 1.4e-5,-1.8e-5 2.2e-5,-2.7e-5 4.099737,4.391924 8.843231,-14.372778 11.960223,-20.772536 8.9e-5,-2.08e-4 1.79e-4,-4.16e-4 2.68e-4,-6.24e-4 3.116815,-6.398733 4.607688,-0.433228 6.098855,5.533456"
         inkscape:connector-curvature="0" />
      <path
         id="path6946"
         style="fill:none;stroke:#000000;stroke-width:0.29551589;stroke-linecap:butt;stroke-linejoin:miter;stroke-miterlimit:4;stroke-dasharray:none;stroke-opacity:1"
         d="m 24.383401,55.53651 c 1.947335,-5.25566 3.89418,-10.509998 6.978603,-4.951714 8.3e-5,1.96e-4 1.66e-4,3.92e-4 2.49e-4,5.88e-4 3.084401,5.55885 7.307036,21.928284 11.296839,18.175179 1.07e-4,-1.32e-4 2.14e-4,-2.64e-4 3.22e-4,-3.97e-4 3.989789,-3.754522 7.746279,-27.6297 11.351789,-27.629622 1.94e-4,0 3.88e-4,0 5.82e-4,0 3.605396,0.0034 7.060216,23.877208 11.159738,27.683184 1.4e-5,-1.8e-5 2.9e-5,-3.6e-5 4.4e-5,-5.4e-5 4.099732,3.80645 8.843215,-12.456363 11.960201,-18.002834 8.3e-5,-1.95e-4 1.67e-4,-3.91e-4 2.51e-4,-5.86e-4 3.116827,-5.545496 4.607702,-0.375406 6.098872,4.795707"
         inkscape:connector-curvature="0" />
      <path
         id="path6948"
         style="fill:none;stroke:#000000;stroke-width:0.29551589;stroke-linecap:butt;stroke-linejoin:miter;stroke-miterlimit:4;stroke-dasharray:none;stroke-opacity:1"
         d="m 24.399122,57.66314 c 1.947335,-4.447096 3.89418,-8.893074 6.978603,-4.189911 7.8e-5,1.82e-4 1.55e-4,3.65e-4 2.33e-4,5.48e-4 3.084403,4.703692 7.307046,18.554639 11.296855,15.378946 1.01e-4,-1.23e-4 2.01e-4,-2.46e-4 3.01e-4,-3.7e-4 3.989797,-3.177015 7.746294,-23.378942 11.35181,-23.378877 1.82e-4,0 3.63e-4,0 5.44e-4,1e-6 3.60541,0.0032 7.06024,20.203814 11.159776,23.424232 2.2e-5,-2.7e-5 4.4e-5,-5.4e-5 6.7e-5,-8.1e-5 4.099726,3.220978 8.843198,-10.539947 11.960178,-15.233132 7.9e-5,-1.82e-4 1.57e-4,-3.64e-4 2.35e-4,-5.46e-4 3.116838,-4.692261 4.607716,-0.317585 6.098888,4.057956"
         inkscape:connector-curvature="0" />
      <path
         id="path6950"
         style="fill:none;stroke:#000000;stroke-width:0.29551589;stroke-linecap:butt;stroke-linejoin:miter;stroke-miterlimit:4;stroke-dasharray:none;stroke-opacity:1"
         d="m 24.414844,59.78977 c 1.947335,-3.638533 3.89418,-7.276151 6.978603,-3.428109 7.2e-5,1.7e-4 1.44e-4,3.39e-4 2.16e-4,5.09e-4 3.084404,3.848533 7.307055,15.180994 11.296872,12.582714 9.3e-5,-1.15e-4 1.86e-4,-2.29e-4 2.79e-4,-3.44e-4 3.989805,-2.599509 7.746309,-19.128184 11.351832,-19.128131 1.68e-4,0 3.37e-4,0 5.05e-4,0 3.605424,0.003 7.060264,16.530421 11.159815,19.165281 2.9e-5,-3.6e-5 5.9e-5,-7.1e-5 8.8e-5,-1.07e-4 4.099722,2.635505 8.843182,-8.623532 11.960157,-12.46343 7.3e-5,-1.69e-4 1.46e-4,-3.39e-4 2.18e-4,-5.08e-4 3.116849,-3.839024 4.60773,-0.259762 6.098905,3.320207"
         inkscape:connector-curvature="0" />
      <path
         id="path6952"
         style="fill:none;stroke:#000000;stroke-width:0.29551589;stroke-linecap:butt;stroke-linejoin:miter;stroke-miterlimit:4;stroke-dasharray:none;stroke-opacity:1"
         d="m 24.430566,61.916401 c 1.947335,-2.829971 3.89418,-5.659229 6.978603,-2.666308 6.6e-5,1.57e-4 1.33e-4,3.13e-4 1.99e-4,4.7e-4 3.084406,2.993375 7.307065,11.807349 11.296889,9.786481 8.6e-5,-1.05e-4 1.72e-4,-2.11e-4 2.58e-4,-3.17e-4 3.989813,-2.022002 7.746323,-14.877426 11.351853,-14.877386 1.55e-4,0 3.11e-4,0 4.66e-4,0 3.605438,0.0027 7.060288,12.857029 11.159854,14.90633 3.7e-5,-4.4e-5 7.3e-5,-8.9e-5 1.1e-4,-1.34e-4 4.099717,2.050032 8.843166,-6.707116 11.960135,-9.693728 6.7e-5,-1.56e-4 1.34e-4,-3.12e-4 2.01e-4,-4.68e-4 3.116861,-2.985789 4.607744,-0.201941 6.098922,2.582456"
         inkscape:connector-curvature="0" />
      <path
         id="path6954"
         style="fill:none;stroke:#000000;stroke-width:0.29551589;stroke-linecap:butt;stroke-linejoin:miter;stroke-miterlimit:4;stroke-dasharray:none;stroke-opacity:1"
         d="m 24.446288,64.043031 c 1.947335,-2.021408 3.89418,-4.042306 6.978603,-1.904506 6e-5,1.44e-4 1.21e-4,2.87e-4 1.82e-4,4.31e-4 3.084407,2.138217 7.307074,8.433705 11.296906,6.990249 7.8e-5,-9.7e-5 1.57e-4,-1.94e-4 2.36e-4,-2.91e-4 3.989821,-1.444495 7.746339,-10.626668 11.351875,-10.626641 1.42e-4,0 2.84e-4,10e-7 4.27e-4,10e-7 3.605451,0.0025 7.060313,9.183635 11.159893,10.647379 4.4e-5,-5.4e-5 8.8e-5,-1.07e-4 1.32e-4,-1.61e-4 4.099712,1.464559 8.843149,-4.790701 11.960113,-6.924026 6.1e-5,-1.43e-4 1.23e-4,-2.87e-4 1.84e-4,-4.3e-4 3.116872,-2.132552 4.607758,-0.144119 6.098939,1.844706"
         inkscape:connector-curvature="0" />
      <path
         id="path6956"
         style="fill:none;stroke:#000000;stroke-width:0.29551589;stroke-linecap:butt;stroke-linejoin:miter;stroke-miterlimit:4;stroke-dasharray:none;stroke-opacity:1"
         d="m 24.462009,66.169661 c 1.947335,-1.212845 3.894181,-2.425383 6.978603,-1.142703 5.6e-5,1.3e-4 1.11e-4,2.61e-4 1.66e-4,3.91e-4 3.084409,1.283058 7.307084,5.06006 11.296922,4.194016 7.2e-5,-8.8e-5 1.44e-4,-1.76e-4 2.15e-4,-2.64e-4 3.989829,-0.866988 7.746354,-6.37591 11.351896,-6.375895 1.3e-4,0 2.59e-4,0 3.89e-4,0 3.605465,0.0023 7.060337,5.510243 11.159931,6.388428 5.2e-5,-6.2e-5 1.03e-4,-1.25e-4 1.55e-4,-1.88e-4 4.099707,0.879087 8.843133,-2.874284 11.96009,-4.154324 5.6e-5,-1.3e-4 1.12e-4,-2.6e-4 1.68e-4,-3.9e-4 3.116883,-1.279317 4.607772,-0.0863 6.098955,1.106956"
         inkscape:connector-curvature="0" />
      <path
         id="path6958"
         style="fill:none;stroke:#000000;stroke-width:0.29551589;stroke-linecap:butt;stroke-linejoin:miter;stroke-miterlimit:4;stroke-dasharray:none;stroke-opacity:1"
         d="m 24.477731,68.296291 c 1.947335,-0.404282 3.894181,-0.80846 6.978603,-0.380901 5e-5,1.17e-4 1e-4,2.35e-4 1.5e-4,3.52e-4 3.08441,0.4279 7.307093,1.686415 11.296938,1.397784 6.5e-5,-8e-5 1.29e-4,-1.59e-4 1.94e-4,-2.38e-4 3.989837,-0.289482 7.746368,-2.125152 11.351917,-2.12515 1.17e-4,0 2.33e-4,0 3.5e-4,0 3.605479,0.002 7.060361,1.83685 11.15997,2.129477 5.9e-5,-7.1e-5 1.18e-4,-1.43e-4 1.77e-4,-2.14e-4 4.099701,0.293613 8.843116,-0.957869 11.960068,-1.384622 5e-5,-1.17e-4 1.01e-4,-2.35e-4 1.51e-4,-3.52e-4 3.116895,-0.42608 4.607786,-0.02848 6.098972,0.369206"
         inkscape:connector-curvature="0" />
      <path
         id="path6960"
         style="fill:none;stroke:#000000;stroke-width:0.29551589;stroke-linecap:butt;stroke-linejoin:miter;stroke-miterlimit:4;stroke-dasharray:none;stroke-opacity:1"
         d="m 24.493453,70.422921 c 1.947335,0.404282 3.89418,0.808464 6.978603,0.380901 4.4e-5,1.05e-4 8.8e-5,2.09e-4 1.33e-4,3.13e-4 3.084411,-0.427258 7.307102,-1.68723 11.296955,-1.398449 5.7e-5,-7e-5 1.14e-4,-1.41e-4 1.72e-4,-2.11e-4 3.989845,0.288025 7.746384,2.125605 11.351939,2.125596 1.03e-4,0 2.07e-4,0 3.11e-4,0 3.605493,0.0018 7.060385,-1.836543 11.160009,-2.129474 6.6e-5,-8.1e-5 1.32e-4,-1.61e-4 1.99e-4,-2.42e-4 4.099696,-0.291859 8.843099,0.958547 11.960046,1.38508 4.5e-5,-1.04e-4 8.9e-5,-2.08e-4 1.34e-4,-3.12e-4 3.116906,0.427155 4.6078,0.02934 6.098989,-0.368544"
         inkscape:connector-curvature="0" />
      <path
         id="path6962"
         style="fill:none;stroke:#000000;stroke-width:0.29551589;stroke-linecap:butt;stroke-linejoin:miter;stroke-miterlimit:4;stroke-dasharray:none;stroke-opacity:1"
         d="m 24.509175,72.549551 c 1.947335,1.212845 3.89418,2.425387 6.978603,1.142703 3.8e-5,9.2e-5 7.7e-5,1.83e-4 1.16e-4,2.74e-4 3.084413,-1.282417 7.307112,-5.060875 11.296972,-4.194681 5e-5,-6.2e-5 10e-5,-1.24e-4 1.5e-4,-1.85e-4 3.989853,0.865532 7.746399,6.376363 11.351961,6.376341 9e-5,0 1.81e-4,0 2.71e-4,0 3.605508,0.0016 7.06041,-5.509936 11.160049,-6.388425 7.3e-5,-8.9e-5 1.47e-4,-1.79e-4 2.2e-4,-2.68e-4 4.099692,-0.877333 8.843084,2.874962 11.960025,4.154782 3.9e-5,-9.1e-5 7.8e-5,-1.83e-4 1.17e-4,-2.74e-4 3.116918,1.280392 4.607814,0.08717 6.099006,-1.106294"
         inkscape:connector-curvature="0" />
      <path
         id="path6964"
         style="fill:none;stroke:#000000;stroke-width:0.29551589;stroke-linecap:butt;stroke-linejoin:miter;stroke-miterlimit:4;stroke-dasharray:none;stroke-opacity:1"
         d="m 24.524896,74.676181 c 1.947335,2.021408 3.894181,4.04231 6.978603,1.904506 3.4e-5,7.8e-5 6.7e-5,1.56e-4 10e-5,2.34e-4 3.084414,-2.137575 7.307121,-8.434519 11.296988,-6.990914 4.3e-5,-5.3e-5 8.6e-5,-1.06e-4 1.29e-4,-1.58e-4 3.989861,1.443039 7.746414,10.627121 11.351982,10.627087 7.8e-5,0 1.56e-4,0 2.33e-4,0 3.605522,0.0013 7.060434,-9.18333 11.160087,-10.647377 8.1e-5,-9.8e-5 1.62e-4,-1.96e-4 2.43e-4,-2.95e-4 4.099687,-1.462805 8.843067,4.791378 11.960002,6.924484 3.4e-5,-7.8e-5 6.8e-5,-1.56e-4 1.01e-4,-2.34e-4 3.116929,2.133627 4.607828,0.144988 6.099022,-1.844044"
         inkscape:connector-curvature="0" />
      <path
         id="path6966"
         style="fill:none;stroke:#000000;stroke-width:0.29551589;stroke-linecap:butt;stroke-linejoin:miter;stroke-miterlimit:4;stroke-dasharray:none;stroke-opacity:1"
         d="m 24.540618,76.802811 c 1.947335,2.829971 3.894181,5.659233 6.978603,2.666308 2.8e-5,6.5e-5 5.6e-5,1.3e-4 8.3e-5,1.96e-4 3.084416,-2.992734 7.307131,-11.808165 11.297005,-9.787147 3.6e-5,-4.4e-5 7.2e-5,-8.8e-5 1.08e-4,-1.33e-4 3.989869,2.020546 7.746429,14.87788 11.352003,14.877833 6.5e-5,0 1.3e-4,0 1.94e-4,0 3.605536,0.0011 7.060458,-12.856722 11.160126,-14.906327 8.8e-5,-1.08e-4 1.77e-4,-2.15e-4 2.65e-4,-3.22e-4 4.099682,-2.048278 8.84305,6.707793 11.95998,9.694186 2.8e-5,-6.5e-5 5.6e-5,-1.31e-4 8.4e-5,-1.96e-4 3.11694,2.986864 4.607843,0.20281 6.099039,-2.581794"
         inkscape:connector-curvature="0" />
      <path
         id="path6968"
         style="fill:none;stroke:#000000;stroke-width:0.29551589;stroke-linecap:butt;stroke-linejoin:miter;stroke-miterlimit:4;stroke-dasharray:none;stroke-opacity:1"
         d="m 24.55634,78.929442 c 1.947335,3.638533 3.894181,7.276155 6.978603,3.428109 2.2e-5,5.2e-5 4.4e-5,1.04e-4 6.6e-5,1.57e-4 3.084418,-3.847893 7.307141,-15.18181 11.297022,-12.58338 2.9e-5,-3.5e-5 5.7e-5,-7e-5 8.6e-5,-1.06e-4 3.989877,2.598053 7.746444,19.128638 11.352025,19.128578 5.2e-5,0 1.04e-4,0 1.55e-4,0 3.60555,8.45e-4 7.060482,-16.530115 11.160165,-19.165278 9.6e-5,-1.16e-4 1.91e-4,-2.32e-4 2.87e-4,-3.49e-4 4.099676,-2.633751 8.843034,8.624209 11.959958,12.463888 2.2e-5,-5.2e-5 4.5e-5,-1.04e-4 6.7e-5,-1.56e-4 3.116952,3.840099 4.607857,0.260631 6.099056,-3.319545"
         inkscape:connector-curvature="0" />
      <path
         id="path6970"
         style="fill:none;stroke:#000000;stroke-width:0.29551589;stroke-linecap:butt;stroke-linejoin:miter;stroke-miterlimit:4;stroke-dasharray:none;stroke-opacity:1"
         d="m 24.572062,81.056072 c 1.947335,4.447096 3.894181,8.893078 6.978603,4.189911 1.6e-5,3.9e-5 3.3e-5,7.9e-5 5e-5,1.18e-4 3.084418,-4.703051 7.307149,-18.555455 11.297038,-15.379612 2.1e-5,-2.7e-5 4.3e-5,-5.3e-5 6.4e-5,-8e-5 3.989885,3.17556 7.746459,23.379396 11.352047,23.379324 3.9e-5,0 7.7e-5,0 1.16e-4,0 3.605564,6.08e-4 7.060506,-20.203508 11.160204,-23.42423 1.03e-4,-1.25e-4 2.06e-4,-2.5e-4 3.09e-4,-3.75e-4 4.099671,-3.219224 8.843017,10.540624 11.959936,15.23359 1.6e-5,-3.9e-5 3.3e-5,-7.9e-5 5e-5,-1.18e-4 3.116963,4.693336 4.607871,0.318453 6.099073,-4.057294"
         inkscape:connector-curvature="0" />
      <path
         id="path6972"
         style="fill:none;stroke:#000000;stroke-width:0.29551589;stroke-linecap:butt;stroke-linejoin:miter;stroke-miterlimit:4;stroke-dasharray:none;stroke-opacity:1"
         d="m 24.587783,83.182702 c 1.947335,5.25566 3.894181,10.510002 6.978603,4.951714 1.2e-5,2.6e-5 2.3e-5,5.2e-5 3.4e-5,7.8e-5 3.08442,-5.558209 7.307159,-21.929099 11.297054,-18.175845 1.5e-5,-1.8e-5 2.9e-5,-3.5e-5 4.3e-5,-5.3e-5 3.989893,3.753067 7.746474,27.630154 11.352068,27.630069 2.6e-5,0 5.2e-5,0 7.8e-5,0 3.605578,3.73e-4 7.06053,-23.876901 11.160242,-27.683181 1.11e-4,-1.34e-4 2.21e-4,-2.68e-4 3.32e-4,-4.02e-4 4.099666,-3.804696 8.843,12.45704 11.959913,18.003292 1.2e-5,-2.6e-5 2.3e-5,-5.2e-5 3.4e-5,-7.8e-5 3.116974,5.546571 4.607885,0.376274 6.099089,-4.795045"
         inkscape:connector-curvature="0" />
      <path
         id="path6974"
         style="fill:none;stroke:#000000;stroke-width:0.29551589;stroke-linecap:butt;stroke-linejoin:miter;stroke-miterlimit:4;stroke-dasharray:none;stroke-opacity:1"
         d="m 24.603505,85.309332 c 1.947335,6.064223 3.894181,12.126925 6.978603,5.713516 6e-6,1.3e-5 1.1e-5,2.6e-5 1.7e-5,3.9e-5 3.084421,-6.413368 7.307168,-25.302744 11.297071,-20.972077 7e-6,-9e-6 1.5e-5,-1.8e-5 2.2e-5,-2.7e-5 3.989901,4.330573 7.746489,31.880917 11.352089,31.880817 1.3e-5,0 2.6e-5,0 3.9e-5,0 3.605592,1.3e-4 7.060554,-27.550296 11.160281,-31.942134 1.18e-4,-1.43e-4 2.36e-4,-2.86e-4 3.54e-4,-4.29e-4 4.099661,-4.39017 8.842984,14.373455 11.959891,20.772994 6e-6,-1.3e-5 1.1e-5,-2.7e-5 1.7e-5,-4e-5 3.116986,6.399808 4.607899,0.434096 6.099106,-5.532794"
         inkscape:connector-curvature="0" />
    </g>
    <path
       style="fill:none;stroke:#000000;stroke-width:0.33162385;stroke-linecap:butt;stroke-linejoin:miter;stroke-miterlimit:4;stroke-dasharray:none;stroke-opacity:1"
       d="m 87.619227,91.910744 c 2.452306,-6.872853 4.903972,-13.743911 8.788195,-6.475285 3.884218,7.268627 9.201938,28.676481 14.226428,23.768311 5.02449,-4.90817 9.75518,-36.131748 14.29572,-36.131586 4.54055,1.62e-4 8.8914,31.223746 14.05422,36.201076 5.16282,4.97733 11.13633,-16.289264 15.06158,-23.542201 3.92525,-7.252937 5.80276,-0.491813 7.6806,6.270503"
       id="path7034"
       inkscape:connector-curvature="0"
       inkscape:path-effect="#path-effect7036"
       inkscape:original-d="m 87.619227,91.910744 c 2.452847,-6.87266 4.904517,-13.743717 7.355018,-20.613231 5.318865,21.406209 10.636575,42.814067 15.953135,64.223487 4.73186,-31.22526 9.46254,-62.448843 14.19208,-93.670885 4.35202,31.222042 8.70287,62.445625 13.05257,93.670885 5.97525,-21.27022 11.94875,-42.536818 17.92139,-63.802872 1.87868,6.759582 3.75619,13.520707 5.63255,20.283434"
       sodipodi:nodetypes="ccccccc" />
    <path
       sodipodi:nodetypes="ccccccc"
       inkscape:original-d="m 87.955801,128.06346 c 2.452843,6.87266 4.904513,13.74372 7.355014,20.61323 5.318865,-21.4062 10.636585,-42.81407 15.953135,-64.223481 4.73187,31.225251 9.46256,62.448841 14.19208,93.670881 4.35202,-31.22204 8.70287,-62.44563 13.05257,-93.670881 5.97525,21.270211 11.94875,42.536811 17.92139,63.802871 1.87868,-6.75958 3.7562,-13.52071 5.63256,-20.28344"
       inkscape:path-effect="#path-effect7040"
       inkscape:connector-curvature="0"
       id="path7038"
       d="m 87.955801,128.06346 c 2.452305,6.87285 4.903971,13.74391 8.788191,6.47529 3.884218,-7.26862 9.201948,-28.67649 14.226428,-23.76832 5.02449,4.90817 9.75518,36.13176 14.29572,36.13159 4.54055,-1.6e-4 8.8914,-31.22375 14.05422,-36.20108 5.16282,-4.97733 11.13633,16.28927 15.06158,23.54221 3.92525,7.25294 5.80276,0.49181 7.68061,-6.27051"
       style="fill:none;stroke:#000000;stroke-width:0.33162385;stroke-linecap:butt;stroke-linejoin:miter;stroke-miterlimit:4;stroke-dasharray:none;stroke-opacity:1" />
    <g
       id="g7074"
       transform="matrix(1.2593017,0,0,1,56.952765,40.627494)">
      <path
         d="m 24.367679,53.40988 c 1.947335,-6.064223 3.89418,-12.126921 6.978603,-5.713516 8.8e-5,2.09e-4 1.77e-4,4.18e-4 2.66e-4,6.27e-4 3.084399,6.414008 7.307026,25.301928 11.296822,20.971411 1.14e-4,-1.41e-4 2.29e-4,-2.81e-4 3.44e-4,-4.23e-4 3.989781,-4.332029 7.746263,-31.880458 11.351767,-31.880368 2.07e-4,0 4.14e-4,1e-6 6.21e-4,1e-6 3.605382,0.0037 7.060192,27.5506 11.159699,31.942134 7e-6,-9e-6 1.4e-5,-1.8e-5 2.2e-5,-2.7e-5 4.099737,4.391924 8.843231,-14.372778 11.960223,-20.772536 8.9e-5,-2.08e-4 1.79e-4,-4.16e-4 2.68e-4,-6.24e-4 3.116815,-6.398733 4.607688,-0.433228 6.098855,5.533456"
         style="fill:none;stroke:#000000;stroke-width:0.29551589;stroke-linecap:butt;stroke-linejoin:miter;stroke-miterlimit:4;stroke-dasharray:none;stroke-opacity:1"
         id="path7042"
         inkscape:connector-curvature="0" />
      <path
         d="m 24.383401,55.53651 c 1.947335,-5.25566 3.89418,-10.509998 6.978603,-4.951714 8.3e-5,1.96e-4 1.66e-4,3.92e-4 2.49e-4,5.88e-4 3.084401,5.55885 7.307036,21.928284 11.296839,18.175179 1.07e-4,-1.32e-4 2.14e-4,-2.64e-4 3.22e-4,-3.97e-4 3.989789,-3.754522 7.746279,-27.6297 11.351789,-27.629622 1.94e-4,0 3.88e-4,0 5.82e-4,0 3.605396,0.0034 7.060216,23.877208 11.159738,27.683184 1.4e-5,-1.8e-5 2.9e-5,-3.6e-5 4.4e-5,-5.4e-5 4.099732,3.80645 8.843215,-12.456363 11.960201,-18.002834 8.3e-5,-1.95e-4 1.67e-4,-3.91e-4 2.51e-4,-5.86e-4 3.116827,-5.545496 4.607702,-0.375406 6.098872,4.795707"
         style="fill:none;stroke:#000000;stroke-width:0.29551589;stroke-linecap:butt;stroke-linejoin:miter;stroke-miterlimit:4;stroke-dasharray:none;stroke-opacity:1"
         id="path7044"
         inkscape:connector-curvature="0" />
      <path
         d="m 24.399122,57.66314 c 1.947335,-4.447096 3.89418,-8.893074 6.978603,-4.189911 7.8e-5,1.82e-4 1.55e-4,3.65e-4 2.33e-4,5.48e-4 3.084403,4.703692 7.307046,18.554639 11.296855,15.378946 1.01e-4,-1.23e-4 2.01e-4,-2.46e-4 3.01e-4,-3.7e-4 3.989797,-3.177015 7.746294,-23.378942 11.35181,-23.378877 1.82e-4,0 3.63e-4,0 5.44e-4,1e-6 3.60541,0.0032 7.06024,20.203814 11.159776,23.424232 2.2e-5,-2.7e-5 4.4e-5,-5.4e-5 6.7e-5,-8.1e-5 4.099726,3.220978 8.843198,-10.539947 11.960178,-15.233132 7.9e-5,-1.82e-4 1.57e-4,-3.64e-4 2.35e-4,-5.46e-4 3.116838,-4.692261 4.607716,-0.317585 6.098888,4.057956"
         style="fill:none;stroke:#000000;stroke-width:0.29551589;stroke-linecap:butt;stroke-linejoin:miter;stroke-miterlimit:4;stroke-dasharray:none;stroke-opacity:1"
         id="path7046"
         inkscape:connector-curvature="0" />
      <path
         d="m 24.414844,59.78977 c 1.947335,-3.638533 3.89418,-7.276151 6.978603,-3.428109 7.2e-5,1.7e-4 1.44e-4,3.39e-4 2.16e-4,5.09e-4 3.084404,3.848533 7.307055,15.180994 11.296872,12.582714 9.3e-5,-1.15e-4 1.86e-4,-2.29e-4 2.79e-4,-3.44e-4 3.989805,-2.599509 7.746309,-19.128184 11.351832,-19.128131 1.68e-4,0 3.37e-4,0 5.05e-4,0 3.605424,0.003 7.060264,16.530421 11.159815,19.165281 2.9e-5,-3.6e-5 5.9e-5,-7.1e-5 8.8e-5,-1.07e-4 4.099722,2.635505 8.843182,-8.623532 11.960157,-12.46343 7.3e-5,-1.69e-4 1.46e-4,-3.39e-4 2.18e-4,-5.08e-4 3.116849,-3.839024 4.60773,-0.259762 6.098905,3.320207"
         style="fill:none;stroke:#000000;stroke-width:0.29551589;stroke-linecap:butt;stroke-linejoin:miter;stroke-miterlimit:4;stroke-dasharray:none;stroke-opacity:1"
         id="path7048"
         inkscape:connector-curvature="0" />
      <path
         d="m 24.430566,61.916401 c 1.947335,-2.829971 3.89418,-5.659229 6.978603,-2.666308 6.6e-5,1.57e-4 1.33e-4,3.13e-4 1.99e-4,4.7e-4 3.084406,2.993375 7.307065,11.807349 11.296889,9.786481 8.6e-5,-1.05e-4 1.72e-4,-2.11e-4 2.58e-4,-3.17e-4 3.989813,-2.022002 7.746323,-14.877426 11.351853,-14.877386 1.55e-4,0 3.11e-4,0 4.66e-4,0 3.605438,0.0027 7.060288,12.857029 11.159854,14.90633 3.7e-5,-4.4e-5 7.3e-5,-8.9e-5 1.1e-4,-1.34e-4 4.099717,2.050032 8.843166,-6.707116 11.960135,-9.693728 6.7e-5,-1.56e-4 1.34e-4,-3.12e-4 2.01e-4,-4.68e-4 3.116861,-2.985789 4.607744,-0.201941 6.098922,2.582456"
         style="fill:none;stroke:#000000;stroke-width:0.29551589;stroke-linecap:butt;stroke-linejoin:miter;stroke-miterlimit:4;stroke-dasharray:none;stroke-opacity:1"
         id="path7050"
         inkscape:connector-curvature="0" />
      <path
         d="m 24.446288,64.043031 c 1.947335,-2.021408 3.89418,-4.042306 6.978603,-1.904506 6e-5,1.44e-4 1.21e-4,2.87e-4 1.82e-4,4.31e-4 3.084407,2.138217 7.307074,8.433705 11.296906,6.990249 7.8e-5,-9.7e-5 1.57e-4,-1.94e-4 2.36e-4,-2.91e-4 3.989821,-1.444495 7.746339,-10.626668 11.351875,-10.626641 1.42e-4,0 2.84e-4,10e-7 4.27e-4,10e-7 3.605451,0.0025 7.060313,9.183635 11.159893,10.647379 4.4e-5,-5.4e-5 8.8e-5,-1.07e-4 1.32e-4,-1.61e-4 4.099712,1.464559 8.843149,-4.790701 11.960113,-6.924026 6.1e-5,-1.43e-4 1.23e-4,-2.87e-4 1.84e-4,-4.3e-4 3.116872,-2.132552 4.607758,-0.144119 6.098939,1.844706"
         style="fill:none;stroke:#000000;stroke-width:0.29551589;stroke-linecap:butt;stroke-linejoin:miter;stroke-miterlimit:4;stroke-dasharray:none;stroke-opacity:1"
         id="path7052"
         inkscape:connector-curvature="0" />
      <path
         d="m 24.462009,66.169661 c 1.947335,-1.212845 3.894181,-2.425383 6.978603,-1.142703 5.6e-5,1.3e-4 1.11e-4,2.61e-4 1.66e-4,3.91e-4 3.084409,1.283058 7.307084,5.06006 11.296922,4.194016 7.2e-5,-8.8e-5 1.44e-4,-1.76e-4 2.15e-4,-2.64e-4 3.989829,-0.866988 7.746354,-6.37591 11.351896,-6.375895 1.3e-4,0 2.59e-4,0 3.89e-4,0 3.605465,0.0023 7.060337,5.510243 11.159931,6.388428 5.2e-5,-6.2e-5 1.03e-4,-1.25e-4 1.55e-4,-1.88e-4 4.099707,0.879087 8.843133,-2.874284 11.96009,-4.154324 5.6e-5,-1.3e-4 1.12e-4,-2.6e-4 1.68e-4,-3.9e-4 3.116883,-1.279317 4.607772,-0.0863 6.098955,1.106956"
         style="fill:none;stroke:#000000;stroke-width:0.29551589;stroke-linecap:butt;stroke-linejoin:miter;stroke-miterlimit:4;stroke-dasharray:none;stroke-opacity:1"
         id="path7054"
         inkscape:connector-curvature="0" />
      <path
         d="m 24.477731,68.296291 c 1.947335,-0.404282 3.894181,-0.80846 6.978603,-0.380901 5e-5,1.17e-4 1e-4,2.35e-4 1.5e-4,3.52e-4 3.08441,0.4279 7.307093,1.686415 11.296938,1.397784 6.5e-5,-8e-5 1.29e-4,-1.59e-4 1.94e-4,-2.38e-4 3.989837,-0.289482 7.746368,-2.125152 11.351917,-2.12515 1.17e-4,0 2.33e-4,0 3.5e-4,0 3.605479,0.002 7.060361,1.83685 11.15997,2.129477 5.9e-5,-7.1e-5 1.18e-4,-1.43e-4 1.77e-4,-2.14e-4 4.099701,0.293613 8.843116,-0.957869 11.960068,-1.384622 5e-5,-1.17e-4 1.01e-4,-2.35e-4 1.51e-4,-3.52e-4 3.116895,-0.42608 4.607786,-0.02848 6.098972,0.369206"
         style="fill:none;stroke:#000000;stroke-width:0.29551589;stroke-linecap:butt;stroke-linejoin:miter;stroke-miterlimit:4;stroke-dasharray:none;stroke-opacity:1"
         id="path7056"
         inkscape:connector-curvature="0" />
      <path
         d="m 24.493453,70.422921 c 1.947335,0.404282 3.89418,0.808464 6.978603,0.380901 4.4e-5,1.05e-4 8.8e-5,2.09e-4 1.33e-4,3.13e-4 3.084411,-0.427258 7.307102,-1.68723 11.296955,-1.398449 5.7e-5,-7e-5 1.14e-4,-1.41e-4 1.72e-4,-2.11e-4 3.989845,0.288025 7.746384,2.125605 11.351939,2.125596 1.03e-4,0 2.07e-4,0 3.11e-4,0 3.605493,0.0018 7.060385,-1.836543 11.160009,-2.129474 6.6e-5,-8.1e-5 1.32e-4,-1.61e-4 1.99e-4,-2.42e-4 4.099696,-0.291859 8.843099,0.958547 11.960046,1.38508 4.5e-5,-1.04e-4 8.9e-5,-2.08e-4 1.34e-4,-3.12e-4 3.116906,0.427155 4.6078,0.02934 6.098989,-0.368544"
         style="fill:none;stroke:#000000;stroke-width:0.29551589;stroke-linecap:butt;stroke-linejoin:miter;stroke-miterlimit:4;stroke-dasharray:none;stroke-opacity:1"
         id="path7058"
         inkscape:connector-curvature="0" />
      <path
         d="m 24.509175,72.549551 c 1.947335,1.212845 3.89418,2.425387 6.978603,1.142703 3.8e-5,9.2e-5 7.7e-5,1.83e-4 1.16e-4,2.74e-4 3.084413,-1.282417 7.307112,-5.060875 11.296972,-4.194681 5e-5,-6.2e-5 10e-5,-1.24e-4 1.5e-4,-1.85e-4 3.989853,0.865532 7.746399,6.376363 11.351961,6.376341 9e-5,0 1.81e-4,0 2.71e-4,0 3.605508,0.0016 7.06041,-5.509936 11.160049,-6.388425 7.3e-5,-8.9e-5 1.47e-4,-1.79e-4 2.2e-4,-2.68e-4 4.099692,-0.877333 8.843084,2.874962 11.960025,4.154782 3.9e-5,-9.1e-5 7.8e-5,-1.83e-4 1.17e-4,-2.74e-4 3.116918,1.280392 4.607814,0.08717 6.099006,-1.106294"
         style="fill:none;stroke:#000000;stroke-width:0.29551589;stroke-linecap:butt;stroke-linejoin:miter;stroke-miterlimit:4;stroke-dasharray:none;stroke-opacity:1"
         id="path7060"
         inkscape:connector-curvature="0" />
      <path
         d="m 24.524896,74.676181 c 1.947335,2.021408 3.894181,4.04231 6.978603,1.904506 3.4e-5,7.8e-5 6.7e-5,1.56e-4 10e-5,2.34e-4 3.084414,-2.137575 7.307121,-8.434519 11.296988,-6.990914 4.3e-5,-5.3e-5 8.6e-5,-1.06e-4 1.29e-4,-1.58e-4 3.989861,1.443039 7.746414,10.627121 11.351982,10.627087 7.8e-5,0 1.56e-4,0 2.33e-4,0 3.605522,0.0013 7.060434,-9.18333 11.160087,-10.647377 8.1e-5,-9.8e-5 1.62e-4,-1.96e-4 2.43e-4,-2.95e-4 4.099687,-1.462805 8.843067,4.791378 11.960002,6.924484 3.4e-5,-7.8e-5 6.8e-5,-1.56e-4 1.01e-4,-2.34e-4 3.116929,2.133627 4.607828,0.144988 6.099022,-1.844044"
         style="fill:none;stroke:#000000;stroke-width:0.29551589;stroke-linecap:butt;stroke-linejoin:miter;stroke-miterlimit:4;stroke-dasharray:none;stroke-opacity:1"
         id="path7062"
         inkscape:connector-curvature="0" />
      <path
         d="m 24.540618,76.802811 c 1.947335,2.829971 3.894181,5.659233 6.978603,2.666308 2.8e-5,6.5e-5 5.6e-5,1.3e-4 8.3e-5,1.96e-4 3.084416,-2.992734 7.307131,-11.808165 11.297005,-9.787147 3.6e-5,-4.4e-5 7.2e-5,-8.8e-5 1.08e-4,-1.33e-4 3.989869,2.020546 7.746429,14.87788 11.352003,14.877833 6.5e-5,0 1.3e-4,0 1.94e-4,0 3.605536,0.0011 7.060458,-12.856722 11.160126,-14.906327 8.8e-5,-1.08e-4 1.77e-4,-2.15e-4 2.65e-4,-3.22e-4 4.099682,-2.048278 8.84305,6.707793 11.95998,9.694186 2.8e-5,-6.5e-5 5.6e-5,-1.31e-4 8.4e-5,-1.96e-4 3.11694,2.986864 4.607843,0.20281 6.099039,-2.581794"
         style="fill:none;stroke:#000000;stroke-width:0.29551589;stroke-linecap:butt;stroke-linejoin:miter;stroke-miterlimit:4;stroke-dasharray:none;stroke-opacity:1"
         id="path7064"
         inkscape:connector-curvature="0" />
      <path
         d="m 24.55634,78.929442 c 1.947335,3.638533 3.894181,7.276155 6.978603,3.428109 2.2e-5,5.2e-5 4.4e-5,1.04e-4 6.6e-5,1.57e-4 3.084418,-3.847893 7.307141,-15.18181 11.297022,-12.58338 2.9e-5,-3.5e-5 5.7e-5,-7e-5 8.6e-5,-1.06e-4 3.989877,2.598053 7.746444,19.128638 11.352025,19.128578 5.2e-5,0 1.04e-4,0 1.55e-4,0 3.60555,8.45e-4 7.060482,-16.530115 11.160165,-19.165278 9.6e-5,-1.16e-4 1.91e-4,-2.32e-4 2.87e-4,-3.49e-4 4.099676,-2.633751 8.843034,8.624209 11.959958,12.463888 2.2e-5,-5.2e-5 4.5e-5,-1.04e-4 6.7e-5,-1.56e-4 3.116952,3.840099 4.607857,0.260631 6.099056,-3.319545"
         style="fill:none;stroke:#000000;stroke-width:0.29551589;stroke-linecap:butt;stroke-linejoin:miter;stroke-miterlimit:4;stroke-dasharray:none;stroke-opacity:1"
         id="path7066"
         inkscape:connector-curvature="0" />
      <path
         d="m 24.572062,81.056072 c 1.947335,4.447096 3.894181,8.893078 6.978603,4.189911 1.6e-5,3.9e-5 3.3e-5,7.9e-5 5e-5,1.18e-4 3.084418,-4.703051 7.307149,-18.555455 11.297038,-15.379612 2.1e-5,-2.7e-5 4.3e-5,-5.3e-5 6.4e-5,-8e-5 3.989885,3.17556 7.746459,23.379396 11.352047,23.379324 3.9e-5,0 7.7e-5,0 1.16e-4,0 3.605564,6.08e-4 7.060506,-20.203508 11.160204,-23.42423 1.03e-4,-1.25e-4 2.06e-4,-2.5e-4 3.09e-4,-3.75e-4 4.099671,-3.219224 8.843017,10.540624 11.959936,15.23359 1.6e-5,-3.9e-5 3.3e-5,-7.9e-5 5e-5,-1.18e-4 3.116963,4.693336 4.607871,0.318453 6.099073,-4.057294"
         style="fill:none;stroke:#000000;stroke-width:0.29551589;stroke-linecap:butt;stroke-linejoin:miter;stroke-miterlimit:4;stroke-dasharray:none;stroke-opacity:1"
         id="path7068"
         inkscape:connector-curvature="0" />
      <path
         d="m 24.587783,83.182702 c 1.947335,5.25566 3.894181,10.510002 6.978603,4.951714 1.2e-5,2.6e-5 2.3e-5,5.2e-5 3.4e-5,7.8e-5 3.08442,-5.558209 7.307159,-21.929099 11.297054,-18.175845 1.5e-5,-1.8e-5 2.9e-5,-3.5e-5 4.3e-5,-5.3e-5 3.989893,3.753067 7.746474,27.630154 11.352068,27.630069 2.6e-5,0 5.2e-5,0 7.8e-5,0 3.605578,3.73e-4 7.06053,-23.876901 11.160242,-27.683181 1.11e-4,-1.34e-4 2.21e-4,-2.68e-4 3.32e-4,-4.02e-4 4.099666,-3.804696 8.843,12.45704 11.959913,18.003292 1.2e-5,-2.6e-5 2.3e-5,-5.2e-5 3.4e-5,-7.8e-5 3.116974,5.546571 4.607885,0.376274 6.099089,-4.795045"
         style="fill:none;stroke:#000000;stroke-width:0.29551589;stroke-linecap:butt;stroke-linejoin:miter;stroke-miterlimit:4;stroke-dasharray:none;stroke-opacity:1"
         id="path7070"
         inkscape:connector-curvature="0" />
      <path
         d="m 24.603505,85.309332 c 1.947335,6.064223 3.894181,12.126925 6.978603,5.713516 6e-6,1.3e-5 1.1e-5,2.6e-5 1.7e-5,3.9e-5 3.084421,-6.413368 7.307168,-25.302744 11.297071,-20.972077 7e-6,-9e-6 1.5e-5,-1.8e-5 2.2e-5,-2.7e-5 3.989901,4.330573 7.746489,31.880917 11.352089,31.880817 1.3e-5,0 2.6e-5,0 3.9e-5,0 3.605592,1.3e-4 7.060554,-27.550296 11.160281,-31.942134 1.18e-4,-1.43e-4 2.36e-4,-2.86e-4 3.54e-4,-4.29e-4 4.099661,-4.39017 8.842984,14.373455 11.959891,20.772994 6e-6,-1.3e-5 1.1e-5,-2.7e-5 1.7e-5,-4e-5 3.116986,6.399808 4.607899,0.434096 6.099106,-5.532794"
         style="fill:none;stroke:#000000;stroke-width:0.29551589;stroke-linecap:butt;stroke-linejoin:miter;stroke-miterlimit:4;stroke-dasharray:none;stroke-opacity:1"
         id="path7072"
         inkscape:connector-curvature="0" />
    </g>
    <path
       sodipodi:nodetypes="ccccccc"
       inkscape:original-d="m 11.817163,44.763905 c 2.452845,-6.87266 4.904513,-13.743716 7.355018,-20.61323 C 24.49105,45.556878 29.808765,66.964743 35.125322,88.374151 39.85718,57.148905 44.58787,25.925319 49.3174,-5.2967249 53.669415,25.925319 58.020265,57.148905 62.36997,88.374151 68.345222,67.10394 74.318712,45.837346 80.291358,24.57129 c 1.878677,6.759582 3.756192,13.520706 5.632551,20.283435"
       inkscape:path-effect="#path-effect37999-4"
       inkscape:connector-curvature="0"
       id="path37997-3"
       d="m 11.817163,44.763905 c 2.452306,-6.872852 4.903972,-13.743909 8.788196,-6.475286 3.884223,7.268624 9.201946,28.676487 14.226434,23.768318 5.024488,-4.908168 9.755175,-36.131755 14.295722,-36.131592 4.540548,1.62e-4 8.891399,31.223748 14.054215,36.201077 5.162817,4.977328 11.136323,-16.289261 15.061574,-23.5422 3.925251,-7.252939 5.802763,-0.491814 7.680605,6.270503"
       style="fill:none;stroke:#000000;stroke-width:0.33162385;stroke-linecap:butt;stroke-linejoin:miter;stroke-miterlimit:4;stroke-dasharray:none;stroke-opacity:1" />
    <path
       style="fill:none;stroke:#000000;stroke-width:0.33162385;stroke-linecap:butt;stroke-linejoin:miter;stroke-miterlimit:4;stroke-dasharray:none;stroke-opacity:1"
       d="m 85.923909,44.854725 c 2.452306,-6.872852 4.903972,-13.743909 8.788196,-6.475286 3.884224,7.268623 9.201945,28.676486 14.226435,23.768318 5.02449,-4.908168 9.75518,-36.131755 14.29572,-36.131593 4.54055,1.63e-4 8.8914,31.223749 14.05422,36.201077 5.16281,4.977329 11.13632,-16.289261 15.06157,-23.542199 3.92525,-7.252939 5.80276,-0.491814 7.68061,6.270503"
       id="path2472"
       inkscape:connector-curvature="0"
       inkscape:path-effect="#path-effect2474"
       inkscape:original-d="m 85.923909,44.854725 c 2.452845,-6.87266 4.904513,-13.743716 7.355018,-20.61323 5.318869,21.406203 10.636583,42.814068 15.953143,64.223476 4.73186,-31.225246 9.46255,-62.448832 14.19208,-93.6708759 4.35201,31.2220439 8.70286,62.4456299 13.05257,93.6708759 5.97525,-21.270211 11.94874,-42.536805 17.92138,-63.802861 1.87868,6.759582 3.7562,13.520706 5.63256,20.283435"
       sodipodi:nodetypes="ccccccc" />
  </g>
</svg>
